<svg xmlns="http://www.w3.org/2000/svg" width="47" height="38" viewBox="0 0 47 38"><defs><style>.a{fill:#fff;fill-rule:evenodd;}</style></defs><path class="a" d="M33.086-26.363h.005v1.343h-.005a1.169,1.169,0,0,1-1.192,1.112H30.187v1.5c.005.484.209.707.671.712h5.407c.46-.005.663-.229.672-.712v-6.561c-.009-.486-.212-.712-.675-.714h-5.4c-.463,0-.666.229-.671.714v1.5h1.707A1.167,1.167,0,0,1,33.086-26.363Zm9.9,9.276V-34.149l0-.12a1.24,1.24,0,0,0-1.324-1.324H26.849a1.237,1.237,0,0,0-1.319,1.324l0,.12v6.674h1.344v-3.368a2.05,2.05,0,0,1,1.916-2.1h9.549a2.045,2.045,0,0,1,1.909,2.1v10.3a2.047,2.047,0,0,1-1.909,2.1H28.788a2.051,2.051,0,0,1-1.916-2.1v-3.367H25.528v8.117h16.11A1.244,1.244,0,0,0,42.989-17.087ZM16.851-22.41v-1.5H15.137a1.171,1.171,0,0,1-1.188-1.112h0v-1.343h0a1.168,1.168,0,0,1,1.188-1.112h1.714v-1.5c-.01-.486-.211-.712-.675-.714h-5.4c-.463,0-.664.229-.673.714v6.561c.009.484.211.707.673.712h5.4C16.64-21.7,16.841-21.927,16.851-22.41ZM47-35.508V-15.97a4.149,4.149,0,0,1-4.16,4.116H42.1v0H25.528v1.783l4.19,4.431v-4.844h3.223v8.952H29.559s-3.54-3.961-4.031-4.829v4.829H21.517V-23.908H20.163v3.367a2.049,2.049,0,0,1-1.909,2.1H8.7a2.048,2.048,0,0,1-1.911-2.1v-10.3a2.047,2.047,0,0,1,1.911-2.1h9.556a2.048,2.048,0,0,1,1.909,2.1v3.368h1.354v-8.033h0a4.142,4.142,0,0,1,4.192-4.021l1.128,0v0H42.8A4.144,4.144,0,0,1,47-35.508ZM0-15.971v-.093H0V-35.508H0a4.146,4.146,0,0,1,4.192-4.021H20.163v3.937H5.336a1.242,1.242,0,0,0-1.322,1.324v17.181a1.243,1.243,0,0,0,1.35,1.3h14.8v3.939H4.894v0H4.16A4.144,4.144,0,0,1,0-15.971ZM5.835-3.7a.774.774,0,0,0,.472-.625.825.825,0,0,0-.637-.7,3.7,3.7,0,0,0-1.14-.118h-.9v1.617H4.68A2.336,2.336,0,0,0,5.835-3.7ZM3.627-8.57v1.511H4.57a2.092,2.092,0,0,0,1.1-.17.684.684,0,0,0,.384-.578c0-.68-.8-.763-1.554-.763ZM7.61-6.162c1.486.186,2.5.963,2.5,2.031a2.326,2.326,0,0,1-1.319,2.1,8.334,8.334,0,0,1-3.543.506H0v-8.952H5.64a6.348,6.348,0,0,1,2.785.456A2.215,2.215,0,0,1,9.8-8.142c0,.948-.877,1.732-2.185,1.947Zm5.851-4.32h3.793l3.7,8.952h-3.42L16.865-3.3H13.739l-.723,1.774H9.8ZM15.3-7.838,14.334-5.25h1.922ZM42.62-10.482h3.56L42.917-7.21l4.043,5.68H42.62L40.4-4.907,39.062-3.6v2.074H35.328v-8.952h3.734V-6.8Z" transform="translate(0 39.529)"/></svg>