<svg xmlns="http://www.w3.org/2000/svg" xmlns:xlink="http://www.w3.org/1999/xlink" width="65.204" height="58.203" viewBox="0 0 65.204 58.203"><defs><style>.a{fill:#00513b;stroke:#00513b;stroke-width:0.2px;}.b{fill:#00543d;}.c{filter:url(#a);}</style><filter id="a" x="0" y="0" width="65.204" height="58.203" filterUnits="userSpaceOnUse"><feOffset dy="3" input="SourceAlpha"/><feGaussianBlur stdDeviation="3" result="b"/><feFlood flood-color="#00513a" flood-opacity="0.404"/><feComposite operator="in" in2="b"/><feComposite in="SourceGraphic"/></filter></defs><g transform="translate(9.101 6.101)"><g class="c" transform="matrix(1, 0, 0, 1, -9.1, -6.1)"><path class="a" d="M-413.468,466.293a.482.482,0,0,0-.038.115,15.554,15.554,0,0,0,.458,3.369,3.464,3.464,0,0,0,2,2.3c.517.245,1.06.432,1.591.646a.756.756,0,0,1,.1.068,5.594,5.594,0,0,1-.566.3,4.67,4.67,0,0,1-3.864-.184,2.656,2.656,0,0,1-1.073-1.067c-.036-.055-.073-.111-.123-.191a5.592,5.592,0,0,0,.038,1.907,1.387,1.387,0,0,1-.235,1.168,2.126,2.126,0,0,0-.355.987,6.291,6.291,0,0,1-.17.7.984.984,0,0,1-.187.349c-.347.394-.726.761-1.055,1.169-.289.359-.513.773-.793,1.141a1.872,1.872,0,0,0-.4,1.3,10.135,10.135,0,0,1-.009,1.045,1.663,1.663,0,0,0,.253.95q.23.377.422.777a1.583,1.583,0,0,0,1.518.948,4.324,4.324,0,0,0,.934-.127.441.441,0,0,0,.345-.381c.061-.315.23-.619.082-.953-.014-.032-.027-.065-.054-.124a1.4,1.4,0,0,0-.107.161c-.057.121-.111.245-.161.369a.912.912,0,0,1-.5.621.862.862,0,0,1-.781-.028.5.5,0,0,1-.326-.454c-.072-.526-.142-1.054-.206-1.58a.821.821,0,0,1,.01-.318,1.25,1.25,0,0,0-.166-1.054.787.787,0,0,1,.084-1.034,1.21,1.21,0,0,1,.579-.319c.1-.024.263.125.368.229a1.166,1.166,0,0,0,1.288.311,2.14,2.14,0,0,1,1.7.288,2.329,2.329,0,0,1,1.06,1.211c.133.3.254.614.376.924a1.891,1.891,0,0,1-.14,1.54,2.137,2.137,0,0,0-.2.769,2.224,2.224,0,0,1-.644,1.522,11.8,11.8,0,0,1-.939.954,7.224,7.224,0,0,1-1.064.64,1.034,1.034,0,0,1-.3.049,1.573,1.573,0,0,0-.457.1,2.225,2.225,0,0,1-1.328.187,4.353,4.353,0,0,0-.717,0,1.771,1.771,0,0,1-.85-.111,1.046,1.046,0,0,0-.418-.071,1.193,1.193,0,0,1-.667-.181,8.529,8.529,0,0,0-.986-.566,2.75,2.75,0,0,1-1.154-1.06,1.464,1.464,0,0,0-.327-.347,1.956,1.956,0,0,1-.526-.777c-.054-.111-.145-.205-.2-.316-.128-.247-.254-.5-.363-.752-.085-.2-.115-.428-.218-.614a3.645,3.645,0,0,1-.315-1.72c-.018-.532-.007-1.068-.067-1.594a4.279,4.279,0,0,1,.111-1.2,6.032,6.032,0,0,1,.246-.847q.09-.282.2-.555.168-.421.349-.832a3.019,3.019,0,0,1,.17-.316,11.636,11.636,0,0,1,.626-1.044,3.426,3.426,0,0,0,.537-1.455c.054-.291.075-.59.107-.888a1.362,1.362,0,0,0,.019-.212c-.018-.4-.039-.808-.061-1.24-.115.222-.223.421-.322.625a3.133,3.133,0,0,1-2.3,1.751,4.512,4.512,0,0,1-3.022-.3c-.114-.055-.215-.135-.367-.23.526-.21,1.006-.4,1.481-.593a3.671,3.671,0,0,0,2.335-2.853,23.588,23.588,0,0,0,.342-2.872.464.464,0,0,0-.018-.111l-.058-.008q-.037.163-.073.326a5.715,5.715,0,0,1-.172.743,1.257,1.257,0,0,1-1.489.912,3.464,3.464,0,0,0-.638-.028.809.809,0,0,0-.818.619,1.1,1.1,0,0,1-.635.765,4.344,4.344,0,0,1-.971.388,1.455,1.455,0,0,1-1.435-.706c-.3-.4-.581-.828-.872-1.242-.044-.063-.1-.115-.144-.18a.637.637,0,0,0-.839-.294,1.077,1.077,0,0,1-1.223-.355,4.688,4.688,0,0,0-2.147-1.324,9.587,9.587,0,0,1-1.547-.832,1.531,1.531,0,0,1-.392-.455.638.638,0,0,0-.468-.333c-.1-.012-.215-.147-.26-.255-.086-.205-.174-.351-.429-.342a.453.453,0,0,1-.487-.4.2.2,0,0,0-.114-.126,2.32,2.32,0,0,1-1.243-.963,9.1,9.1,0,0,1-1.046-1.844,26.924,26.924,0,0,1-.962-2.544c-.1-.241-.215-.474-.31-.717a.366.366,0,0,1-.015-.249,3.8,3.8,0,0,0,.176-1.258.8.8,0,0,1,.318-.569c.188-.163.327-.388.523-.539a2.18,2.18,0,0,0,.864-1.374.97.97,0,0,1,.661-.871c.033-.009.054-.061.082-.09a2.986,2.986,0,0,1,.58-.555c1.046-.567,2.107-1.107,3.17-1.64a2.052,2.052,0,0,1,.672-.19,6.435,6.435,0,0,0,2.384-.844,9.5,9.5,0,0,1,3.284-1.138c.322-.045.634-.127.953-.174a3.229,3.229,0,0,1,1.455.222c.53.166,1.078.277,1.617.417.253.064.508.123.756.206a2.3,2.3,0,0,1,1.114,1c.107.16.2.222.4.153a5.394,5.394,0,0,1,3.584.07,2.816,2.816,0,0,0,1.8,0,5.507,5.507,0,0,1,2.415-.323,11.927,11.927,0,0,1,1.269.273.182.182,0,0,0,.236-.086c.127-.185.268-.361.406-.537a2.66,2.66,0,0,1,1.7-.807,12.989,12.989,0,0,0,1.552-.413,3.163,3.163,0,0,1,1.806-.111c.656.15,1.328.247,1.968.452a12.259,12.259,0,0,1,1.725.75,8.266,8.266,0,0,0,2.438.883,4.609,4.609,0,0,1,1.219.431c.688.323,1.361.681,2.033,1.038a4.782,4.782,0,0,1,.866.533c.274.231.526.494.8.734a1.409,1.409,0,0,1,.312.721,1.983,1.983,0,0,0,.718,1.155,10.35,10.35,0,0,1,.771.763.85.85,0,0,1,.2.632,3.091,3.091,0,0,0,.147,1.026.937.937,0,0,1-.179.763,5.151,5.151,0,0,0-.506,1.434,3.435,3.435,0,0,1-.251.695c-.18.4-.4.792-.561,1.2a5.174,5.174,0,0,1-.882,1.38,3.157,3.157,0,0,1-.464.51,3.422,3.422,0,0,1-.649.353c-.107.049-.186.083-.215.219a.416.416,0,0,1-.468.333.387.387,0,0,0-.411.333.334.334,0,0,1-.315.28.48.48,0,0,0-.408.312,1.548,1.548,0,0,1-.555.583,8.015,8.015,0,0,1-2.077.975,2.694,2.694,0,0,0-1.255.859,1.392,1.392,0,0,1-1.658.511.4.4,0,0,0-.49.2c-.287.372-.57.748-.835,1.137a2.566,2.566,0,0,1-1.077,1.054,1.173,1.173,0,0,1-.944.016c-.284-.124-.565-.26-.836-.411a1.04,1.04,0,0,1-.477-.642.824.824,0,0,0-.852-.662,2.263,2.263,0,0,0-.494.015c-1.07.194-1.586-.439-1.738-1.366-.027-.161-.054-.322-.083-.483A.763.763,0,0,0-413.468,466.293Zm-7.237,7.778c.5-.1.963-.175,1.411-.3a.915.915,0,0,1,1,.261,7.758,7.758,0,0,0,.638.53l-.038.055c-.248-.16-.5-.315-.744-.481a.68.68,0,0,0-.586-.121c-.3.082-.6.153-.895.252-.22.074-.429.184-.641.277l.018.055c.454,0,.907,0,1.361,0a.821.821,0,0,1,.816.635.916.916,0,0,0-.69-.366c-.413.008-.828.008-1.234.055a3.026,3.026,0,0,0-.768.229,1.472,1.472,0,0,0-.331.268c.318-.036.6-.111.888-.166a2.641,2.641,0,0,1,2.716,1.142c-.046-.016-.077-.026-.107-.038-.453-.188-.9-.377-1.357-.563a2.519,2.519,0,0,0-2.195.055c-.2.1-.236.277-.286.478,1.4-.306,2.352.031,2.755.626,0,0-.012.01-.014.008a2.822,2.822,0,0,0-2.839-.115.271.271,0,0,0-.185.31,2.94,2.94,0,0,1,3.432.5l-.147-.07a3.592,3.592,0,0,0-1.486-.4,3.608,3.608,0,0,0-1.913.584.658.658,0,0,0-.295.777,2.811,2.811,0,0,1,3.46.349c-.468-.111-.932-.208-1.39-.327a2.493,2.493,0,0,0-1.96.2.388.388,0,0,0-.161.176,2.817,2.817,0,0,0,0,1.836,1.906,1.906,0,0,1,1.426-.674,1.729,1.729,0,0,1,1.4.646,1.084,1.084,0,0,1-.185-.077,2.322,2.322,0,0,0-2.613.306.188.188,0,0,0-.072.116,2.361,2.361,0,0,0,.238,1.165c.142-.118.268-.226.4-.333a2.957,2.957,0,0,1,1.859-.651.739.739,0,0,1,.614.259c-.366.055-.735.086-1.091.173a3.716,3.716,0,0,0-1.557.749c-.136.115-.155.21-.041.351a1.779,1.779,0,0,1,1.752-.652.287.287,0,0,1-.122.055,2.489,2.489,0,0,0-1.342.739c-.275.27-.215.514.061.744a2.917,2.917,0,0,1,1.325-.624c-.351.266-.716.551-1.09.823-.126.091-.111.182-.076.309a1.638,1.638,0,0,0,.723.912l1.387-1.13a6.242,6.242,0,0,1-1.26,1.347,1.51,1.51,0,0,0,.652.676.179.179,0,0,0,.143.033.184.184,0,0,0,.121-.085c.182-.231.37-.456.555-.684l.05.031-.483.888.326.21a2.993,2.993,0,0,0,.669-1.565c.412.726-.045,1.279-.369,1.911.2.083.387.166.576.231a.208.208,0,0,0,.181,0,.22.22,0,0,0,.116-.144c.122-.307.28-.6.376-.916a6.425,6.425,0,0,0,.152-.822,4.364,4.364,0,0,1,.023,1.01,7.673,7.673,0,0,1-.272,1,1.93,1.93,0,0,0,.246.1c.209.055.585-.055.63-.2a5.245,5.245,0,0,0,.18-.676q.045-.329.057-.662a1.812,1.812,0,0,1,.093,1.378c.186.04.372.077.558.121a.955.955,0,0,0,.94-.365c.107-.117.071-.378.1-.574a.283.283,0,0,0,0-.042,3.181,3.181,0,0,0-.36-1.331.958.958,0,0,1,.325.2,2.152,2.152,0,0,1,.418,1.586c.415,0,.56-.173.471-.555-.016-.069-.038-.137-.06-.2-.065-.2-.133-.4-.2-.6l.056-.033.583.932.3-.233a2.991,2.991,0,0,0-.958-1.179,1.77,1.77,0,0,1,1.181.911l.392-.333-.322-.307.012-.022.414.172.209-.3-.9-.232v-.058a8.059,8.059,0,0,1,.811.006c.268.027.349.008.424-.259a4.24,4.24,0,0,0,.079-.568l-.988-.087.008-.055c.288-.023.576-.043.863-.073a.239.239,0,0,0,.168-.082,1.842,1.842,0,0,0,.151-1.589l-.786.2-.008-.028.735-.4-.192-.488a1.569,1.569,0,0,1-1.058.726c.206-.277.449-.573.654-.894.188-.3.147-.4-.161-.606a1.612,1.612,0,0,1-.749,1.075,2.687,2.687,0,0,0,.411-1.171c.011-.077.011-.206-.03-.231a1.4,1.4,0,0,0-1.4-.272q.087.342.14.693a6.688,6.688,0,0,1,0,.689l-.024-.008-.372-1.373a.858.858,0,0,1-.859-.19,2.357,2.357,0,0,0-.281-.178.235.235,0,0,0-.2-.041.243.243,0,0,0-.159.131c.067.114.128.222.195.333a3,3,0,0,1,.494,1.185c.068.506.122,1.015.193,1.521a2.337,2.337,0,0,0,.112.365,1.62,1.62,0,0,0,.249-.308c.107-.228.171-.479.283-.7.045-.091.171-.139.261-.2.058-.043.148-.069.171-.126.118-.287.22-.582.329-.88a2.421,2.421,0,0,1-.133,1.02.366.366,0,0,0-.029.18c.077.325.165.647.262,1.025h1.012a1.459,1.459,0,0,1-.93.222.273.273,0,0,0-.322.206,2.561,2.561,0,0,1-.225.5,1.111,1.111,0,0,1-.322.4,2.335,2.335,0,0,1-2.7,0,1.7,1.7,0,0,1-.429-.522c-.161-.263-.259-.565-.421-.826a2.522,2.522,0,0,1-.388-1.684c.045-.374.057-.753.122-1.122a1.768,1.768,0,0,1,.251-.777,11.441,11.441,0,0,0,1-1.913l-1.224-.927a3.035,3.035,0,0,1,1.4.708c.3-.444.581-.881.876-1.307a.33.33,0,0,0-.027-.441c-.156-.193-.318-.38-.478-.57l.032-.041.682.576a3.346,3.346,0,0,1,.2-.447,2.109,2.109,0,0,0,.283-1.285.666.666,0,0,0-.289-.55q-.429-.307-.856-.616l.012-.042,1.015.413c.018-.211.046-.435.054-.66.023-.524.054-1.048.054-1.572,0-.418-.074-.836-.083-1.254-.01-.461.016-.923.026-1.384,0-.055.005-.1.011-.217l.215.427.07.011.429-1.217.087.5c.632-.71.384-1.557.451-2.357l.371.781a4.541,4.541,0,0,1,.474-.066c.283-.009.322-.046.3-.337-.033-.432-.059-.864-.09-1.3-.016-.212-.021-.428-.054-.637a16.2,16.2,0,0,1-.229-3.356c0-.108,0-.215,0-.322a.242.242,0,0,1,.1.152c.021.189.138.23.3.24a1.809,1.809,0,0,0,1.3-.372c.171-.136.322-.3.53-.485-.069.166-.107.286-.165.4a1.561,1.561,0,0,1-.943.807c-.161.05-.334.13-.327.333a2.063,2.063,0,0,1-.342,1.054.628.628,0,0,0-.05.637l.859-1.014.063.049a12.054,12.054,0,0,1-.684,1.026.608.608,0,0,0-.1.7A8.847,8.847,0,0,0-412.086,462a4.32,4.32,0,0,1-.873,1.689.352.352,0,0,0-.1.214,5.231,5.231,0,0,0,.054.56l.049.016.868-1.52a.248.248,0,0,1-.016.148c-.258.564-.5,1.137-.787,1.685a.686.686,0,0,0,0,.555,7.041,7.041,0,0,0,1.058-1.951,5.881,5.881,0,0,0,.268-1.933,2.221,2.221,0,0,1,.37-1.133,3.7,3.7,0,0,0,.341-.674c.107-.275.176-.564.261-.847a4.224,4.224,0,0,1-.3,1.783.7.7,0,0,0,.169-.2c.191-.32.371-.648.571-.963a1.564,1.564,0,0,0,.142-1.407c-.153-.448-.335-.888-.486-1.335a2.516,2.516,0,0,1,.134-1.789v1.435l.1.068c.049-.083.1-.166.148-.249a4.35,4.35,0,0,0,.289-.562c.127-.352.222-.716.337-1.073a1.528,1.528,0,0,1,.747-1.047,1.527,1.527,0,0,0,.779-.782,1.4,1.4,0,0,1,1.144-.745,1.443,1.443,0,0,0-.737,1.19,2.6,2.6,0,0,1-.557,1.174,1.813,1.813,0,0,0-.438,1.355,4.047,4.047,0,0,1,.005.576,1.693,1.693,0,0,1-.725,1.473.792.792,0,0,0-.363.888,2.563,2.563,0,0,1,0,.676c-.029.287-.079.573-.135.857a2.666,2.666,0,0,1-.194.751,5.132,5.132,0,0,1-.764,1.132,2.334,2.334,0,0,0-.615,1.117c-.082.333-.243.647-.331.98a3.359,3.359,0,0,1-.61,1.29.729.729,0,0,0-.164.575,1.467,1.467,0,0,1-.144.988.368.368,0,0,0-.044.311.353.353,0,0,0,.21.227,3.455,3.455,0,0,0,.515.13,4.516,4.516,0,0,0-.006-1.619,3.452,3.452,0,0,1,.488,1.747l.52-.038-.129-2.075a2.68,2.68,0,0,1,.3.688c.088.379.131.769.2,1.153.04.222.107.429.4.449a6.908,6.908,0,0,0-.727-2.967,1.886,1.886,0,0,1,.49.61q.294.839.505,1.705c.107.418.161.849.257,1.27a.6.6,0,0,0,.352.45c-.019-.214-.048-.416-.054-.619-.007-.362,0-.721,0-1.086,0-.128-.014-.256-.024-.383s-.021-.239-.032-.359a3.494,3.494,0,0,1,.369,1.794,1.333,1.333,0,0,0,.006.34.654.654,0,0,0,.472.536c.252.087.4-.055.548-.232a.878.878,0,0,0,.089-.117c.333-.571.68-1.135.992-1.72a4.949,4.949,0,0,0,.493-1.145,4.253,4.253,0,0,0-.426-3.457,2.7,2.7,0,0,1,.971,1.819,4.8,4.8,0,0,1-.24,2.067c.283.023.551.023.81.07a.689.689,0,0,0,.611-.166,8.606,8.606,0,0,1,.81-.618.285.285,0,0,0,.156-.321c-.06-.451-.116-.9-.167-1.354a6,6,0,0,0-.767-2.476c-.09-.151-.165-.311-.247-.467l-.243-.46a5.654,5.654,0,0,1,1.463,2.511c.182.735.326,1.48.492,2.243l.747-.232c-.018-.132-.034-.23-.044-.328a6.291,6.291,0,0,0-.928-2.752c-.37-.6-.794-1.16-1.2-1.737-.129-.184-.265-.363-.4-.545l.044-.03A8.9,8.9,0,0,1-401.936,465l.848-.393a7.267,7.267,0,0,0-.859-2.5,15.827,15.827,0,0,0-1.68-2.013,7.858,7.858,0,0,1,1.4,1.054,3.914,3.914,0,0,1,1.028,1.424c.212.555.393,1.128.6,1.726a1.011,1.011,0,0,1,.827-.558c.034,0,.082-.059.1-.1a.612.612,0,0,1,.67-.487,4.578,4.578,0,0,1-.325-.66,2.743,2.743,0,0,0-1.342-1.6,5.16,5.16,0,0,1-1.8-1.6,4.476,4.476,0,0,1-.669-1.516.607.607,0,0,1,.107.146,6.544,6.544,0,0,0,2.8,2.8A2.567,2.567,0,0,1-399,462a5.565,5.565,0,0,0,.3.581.221.221,0,0,0,.172.1,1.969,1.969,0,0,0,1.23-.8c-.2-.252-.4-.484-.58-.734a2.347,2.347,0,0,0-1.09-.844,2.862,2.862,0,0,1-1.069-.7c-.331-.35-.678-.685-1.029-1.014-.2-.185-.414-.346-.623-.518a3.922,3.922,0,0,1,.849.436,7.543,7.543,0,0,1,.735.617,3.069,3.069,0,0,0,1.229.791,2.679,2.679,0,0,1,1.437.984c.147.191.315.366.5.579l.644-1.035-.34-.289c-.765-.651-1.546-1.282-2.289-1.958a5.9,5.9,0,0,0-1.986-1.228c-.367-.132-.724-.291-1.086-.438a.883.883,0,0,1,.29.017,6.3,6.3,0,0,1,2.724,1.145c.6.476,1.206.943,1.815,1.407.346.264.7.513,1.064.777.054-.111.1-.194.146-.284.2-.418.2-.427-.156-.693-.833-.617-1.678-1.217-2.506-1.841a5.513,5.513,0,0,0-3.145-1.253c-.273-.01-.543-.062-.815-.094v-.072h1.047a4.063,4.063,0,0,1,2.177.558c1,.6,1.977,1.233,2.963,1.854.22.139.432.291.637.429.139-.406.274-.784.394-1.165a.216.216,0,0,0-.08-.18c-.33-.219-.658-.441-1-.635a13.707,13.707,0,0,0-3.466-1.331c-.626-.155-1.259-.277-1.938-.422a12.477,12.477,0,0,1,6.369,1.7,3.416,3.416,0,0,1-.034-.549c.04-.4-.2-.587-.492-.749a2.254,2.254,0,0,1-.51-.311,2.9,2.9,0,0,0-1.6-.827c-.8-.13-1.606-.232-2.415-.317-.483-.052-.974-.048-1.46-.07a13.967,13.967,0,0,1,4.568.043c-.072-.2-.081-.422-.343-.482-.064-.015-.13-.143-.148-.229-.07-.351-.161-.444-.583-.444-.813,0-1.625.044-2.437.019a11.537,11.537,0,0,0-3.554.533,1.1,1.1,0,0,1-.113.02,12.1,12.1,0,0,1,1.874-.7,12.042,12.042,0,0,1,1.735-.222c.572-.055,1.146-.09,1.764-.138-.092-.072-.148-.121-.208-.162-.447-.307-.9-.61-1.342-.918a3.455,3.455,0,0,0-1.083-.6,6.667,6.667,0,0,1-1.79-.8,8.276,8.276,0,0,0-2.66-.994c-.532-.107-1.083-.1-1.618-.2a2.828,2.828,0,0,0-1.7.285c-.429.2-.891.328-1.342.482-.316.111-.635.205-1,.322l1.218,1,.805-.711c-.171.341-.322.625-.456.921a.334.334,0,0,0,.036.247,4.252,4.252,0,0,0,.268.392,7.613,7.613,0,0,1,1.5-1.56c-.327.565-.669,1.114-.991,1.675-.2.342-.178.373.126.662a8.64,8.64,0,0,1,2.432-2.65c-.45.625-.9,1.224-1.323,1.847-.337.5-.633,1.031-.948,1.548-.128.209-.232.222-.364.052a8.176,8.176,0,0,0-2.341-2.1,5.845,5.845,0,0,0-3.28-.918,7.579,7.579,0,0,0-2.158.528,1.519,1.519,0,0,1-1.51,0,7.931,7.931,0,0,0-2.077-.52,5.373,5.373,0,0,0-2.454.462,8.17,8.17,0,0,0-3.161,2.435c-.259.312-.279.316-.5-.033-.524-.817-1.049-1.632-1.586-2.441-.194-.292-.422-.559-.634-.838l.048-.049c.437.408.9.79,1.3,1.231s.751.946,1.127,1.421c.257-.3.262-.3.079-.65-.121-.231-.255-.454-.392-.677-.192-.313-.391-.622-.587-.933a6.592,6.592,0,0,1,1.5,1.508,3.212,3.212,0,0,1,.231-.337.289.289,0,0,0,.054-.365c-.142-.269-.282-.539-.453-.866l.816.721,1.2-.99c-.207-.077-.376-.144-.55-.2-.59-.2-1.2-.37-1.775-.615a2.919,2.919,0,0,0-1.7-.281c-.689.123-1.4.166-2.076.312a7.178,7.178,0,0,0-2.239.9,7.337,7.337,0,0,1-1.751.787,3.018,3.018,0,0,0-.76.367c-.472.305-.926.64-1.388.961-.151.1-.3.206-.506.342.436.034.811.06,1.186.092a14.836,14.836,0,0,1,2.011.2,20.6,20.6,0,0,1,2.147.725.209.209,0,0,1,.051.037.917.917,0,0,1-.246-.044,11.538,11.538,0,0,0-2.776-.49c-1.033-.012-2.065-.025-3.1-.025-.38,0-.5.08-.574.434-.02.092-.088.226-.157.244-.259.067-.265.281-.33.478a13.332,13.332,0,0,1,4.569-.018c-.478.039-.958.022-1.436.043a12.076,12.076,0,0,0-2.693.383,2.457,2.457,0,0,0-1.1.555,9.091,9.091,0,0,1-.783.539,1.189,1.189,0,0,0-.444.469,2.691,2.691,0,0,0-.019.788,9.9,9.9,0,0,1,3.028-1.255,13.365,13.365,0,0,1,3.262-.388,18.371,18.371,0,0,0-3.353.824,11.767,11.767,0,0,0-2.99,1.51c-.054.038-.124.129-.111.171.122.4.261.786.4,1.2.287-.2.571-.409.867-.6.8-.512,1.61-1.006,2.411-1.523a5.318,5.318,0,0,1,3.5-.7c.017,0,.033.018.07.04-.339.039-.655.088-.973.111a4.8,4.8,0,0,0-2.537.916c-1.069.777-2.143,1.545-3.211,2.322a.216.216,0,0,0-.07.184c.077.218.176.427.276.66.747-.558,1.473-1.083,2.18-1.634a6.767,6.767,0,0,1,2.208-1.38c.5-.144,1-.284,1.5-.424l.019.067c-.5.205-1.02.386-1.506.624a7.619,7.619,0,0,0-1.148.7c-.335.245-.624.558-.942.828-.648.551-1.3,1.095-1.957,1.637-.084.07-.141.134-.072.245l.579.927c.138-.166.245-.287.342-.416a3.308,3.308,0,0,1,1.723-1.221,2.467,2.467,0,0,0,.746-.433c.341-.263.641-.584.985-.841a9.994,9.994,0,0,1,.92-.555c-.471.463-.961.888-1.408,1.358a3.652,3.652,0,0,1-1.348.952,1.931,1.931,0,0,0-.847.588c-.253.315-.5.635-.756.956a.205.205,0,0,0,.028.042c.155.151.3.313.469.449a1.188,1.188,0,0,0,.391.222c.476.144.5.144.691-.337a3.046,3.046,0,0,1,1.508-1.619,5.561,5.561,0,0,0,2.043-1.789c.243-.348.469-.709.7-1.064a2.236,2.236,0,0,1-.118.444,4.526,4.526,0,0,1-2.108,2.5,3.885,3.885,0,0,0-1.859,2.426.6.6,0,0,1,.6.433.335.335,0,0,0,.224.171.876.876,0,0,1,.609.4c.031.044.071.082.136.156a7.535,7.535,0,0,1,1.014-2.505,7.136,7.136,0,0,1,1.993-1.706,15.881,15.881,0,0,0-1.668,2,7.247,7.247,0,0,0-.868,2.514l.825.379c.1-.413.174-.819.3-1.2a7.86,7.86,0,0,1,.486-1.15,8.566,8.566,0,0,1,.653-1.033c.242-.333.508-.654.781-.964s.547-.578.821-.864l.04.04q-.59.829-1.185,1.657a6.968,6.968,0,0,0-1.362,3.713l.743.222c.126-.6.246-1.172.363-1.741a5.644,5.644,0,0,1,.58-1.656,4.87,4.87,0,0,1,.971-1.337c-.288.591-.637,1.194-.881,1.839a11.666,11.666,0,0,0-.508,2.993.25.25,0,0,0,.093.18c.283.222.567.449.863.654a.872.872,0,0,0,.442.189,9.371,9.371,0,0,0,.981-.09c-.459-1.839-.161-3.41.77-3.878a3.182,3.182,0,0,0-.607,1.775,4.156,4.156,0,0,0,.335,2.182q.483.963,1,1.909a3.927,3.927,0,0,0,.447.637.458.458,0,0,0,.344.2.454.454,0,0,0,.366-.148.737.737,0,0,0,.257-.7,3.87,3.87,0,0,1,.339-1.875l-.071,2.472a.614.614,0,0,0,.338-.433c.083-.336.145-.679.209-1.02a7.694,7.694,0,0,1,.557-2,1.059,1.059,0,0,1,.517-.555,6.286,6.286,0,0,0-.751,2.945c.364-.07.376-.351.421-.606.06-.342.1-.691.178-1.027a5.18,5.18,0,0,1,.268-.687l.023.019-.126,2.079.523.029a3.291,3.291,0,0,1,.483-1.737,4.252,4.252,0,0,0-.007,1.6c.09-.01.164-.016.238-.029a1.237,1.237,0,0,0,.2-.052.37.37,0,0,0,.273-.227.39.39,0,0,0-.036-.361,1.428,1.428,0,0,1-.14-.947.772.772,0,0,0-.173-.614,3.035,3.035,0,0,1-.59-1.254c-.031-.131-.054-.265-.1-.392-.124-.367-.257-.732-.389-1.1a.6.6,0,0,0-.116-.242,5.34,5.34,0,0,1-1.073-1.424,2.63,2.63,0,0,1-.225-.738,5.979,5.979,0,0,0-.071-.654,2.406,2.406,0,0,1-.069-1.134.614.614,0,0,0-.263-.647,1.644,1.644,0,0,1-.788-1.168,4.824,4.824,0,0,1-.038-.956,1.9,1.9,0,0,0-.441-1.377,2.588,2.588,0,0,1-.561-1.2,1.434,1.434,0,0,0-.716-1.152s0-.02,0-.032a1.513,1.513,0,0,1,1.211.913,1.135,1.135,0,0,0,.608.582,1.26,1.26,0,0,1,.668.666c.082.195.147.4.215.6.124.368.226.746.376,1.1a3.9,3.9,0,0,0,.37.585l.081-.034c.012-.238.032-.476.032-.714s-.019-.484-.03-.727a2.563,2.563,0,0,1,.107,1.865c-.161.459-.344.913-.491,1.378a1.4,1.4,0,0,0,.155,1.243c.185.282.347.58.519.87l.245.414.054-.019a3.518,3.518,0,0,1-.372-1.847.774.774,0,0,1,.074.2,4.392,4.392,0,0,0,.582,1.421,1.94,1.94,0,0,1,.284.742,12.057,12.057,0,0,1,.092,1.211,5.673,5.673,0,0,0,.776,2.229,8.882,8.882,0,0,0,.483.752.557.557,0,0,0-.03-.626,1.823,1.823,0,0,1-.218-.388c-.205-.453-.4-.91-.6-1.365l.054-.027.875,1.524a2.54,2.54,0,0,0,.1-.473.388.388,0,0,0-.12-.356,4.141,4.141,0,0,1-.849-1.656,8.063,8.063,0,0,0,1.01,1.453.531.531,0,0,0,.076-.394.518.518,0,0,0-.22-.331.477.477,0,0,1-.078-.1c-.185-.3-.368-.6-.552-.9l.054-.035.88,1.035a.9.9,0,0,0-.092-.715,3.388,3.388,0,0,1-.293-.785c-.067-.409-.066-.439-.45-.578a1.5,1.5,0,0,1-.948-1.11,2.074,2.074,0,0,1,.208.206,1.908,1.908,0,0,0,1.39.6c.357,0,.365,0,.5-.341.01-.023.022-.045.033-.067a18,18,0,0,1-.06,2.768c-.128.97-.2,1.95-.288,2.925-.012.131.009.252.169.262.135.009.271,0,.412,0l.132-.963h.028l.325,1.427.34-.263.054.035a1.053,1.053,0,0,0-.258.747,1.046,1.046,0,0,0,.33.716l.107-.567h.032l.367,1.527.34-.708.061,2.879.069.007a1.768,1.768,0,0,1,.791-.725c.4-.2.81-.388,1.225-.558a.5.5,0,0,1,.376.01c.279.137.541.313.809.473l-.024.052c-.2-.055-.411-.111-.613-.171a.875.875,0,0,0-.736.074c-.258.148-.523.284-.783.428a2.833,2.833,0,0,0-.96.949.3.3,0,0,0-.058.176c.023.242.06.483.092.732.246-.182.458-.366.693-.508a2.59,2.59,0,0,1,2.039-.511,2.243,2.243,0,0,1,1.61,1.281,1.611,1.611,0,0,1-.215-.181,2.73,2.73,0,0,0-2.464-.741,3.539,3.539,0,0,0-1.61.875c-.025.022-.059.052-.061.08-.02.242-.034.484-.054.763.189-.091.329-.167.474-.226A3.33,3.33,0,0,1-418,472.5a3.435,3.435,0,0,1,1.073.367l-1.153-.078-.013.067a3.9,3.9,0,0,1,1.7.822c-.719-.181-1.417-.363-2.119-.529a.93.93,0,0,0-.487-.016,5.048,5.048,0,0,0-1.522.685A1.534,1.534,0,0,0-420.7,474.072Zm-1.771-7.718-.063.034v.122c.025.482.066.965.073,1.447a7.649,7.649,0,0,1-.426,2.185,2.226,2.226,0,0,1-.491.972,5.818,5.818,0,0,1-2.056,1.6,3.543,3.543,0,0,0,2.6-.449,4.212,4.212,0,0,0,1.59-2.667c-.107.2-.183.43-.307.622-.31.477-.629.949-.97,1.4a2.507,2.507,0,0,1-1.61.839.069.069,0,0,1,.036-.051,3.555,3.555,0,0,0,1.747-1.6,6.18,6.18,0,0,0,.67-2.478c0-.02-.023-.042-.027-.049l-.347.96-.057-.022a1.6,1.6,0,0,0,.033-.166,7.185,7.185,0,0,0,.092-1.206,6.028,6.028,0,0,0-.29-1.171,1.462,1.462,0,0,0-.191-.322Zm7.379,3.223-.058.038c.174.453.336.911.527,1.356a2.7,2.7,0,0,0,.866,1.146,3.8,3.8,0,0,0,2.4.678,2.183,2.183,0,0,0,.372-.065,11.309,11.309,0,0,1-1.1-.742,6.018,6.018,0,0,1-1.045-1.082,4.059,4.059,0,0,1-.437-1.091,6.506,6.506,0,0,1-.317-2.708c.024-.234.042-.469.062-.7l-.07-.017c-.037.107-.079.212-.107.322a4.1,4.1,0,0,1-.221.771,1.839,1.839,0,0,0-.136,1.158c.028.2.067.4.1.594l-.051.016-.339-.906c.107,1.81.681,3.325,2.415,4.119a2.505,2.505,0,0,1-1.56-.777,6.6,6.6,0,0,1-1.3-2.107Zm-1.226,11.093v1.443h.06c.125-.507.437-1.022-.059-1.443Zm.406.991-.057-.016c-.045.325-.107.649-.126.975a.33.33,0,0,0,.276.347Z" transform="translate(450.79 -441.54)"/></g><path class="b" d="M-388.85,454.127c-.215-.023-.435-.049-.653-.067a.637.637,0,0,0-.66.435,1.282,1.282,0,0,0,.087,1.182,2.079,2.079,0,0,1,.244.514,1.409,1.409,0,0,0,.422.636,1.057,1.057,0,0,0,1.322.179c.167-.094.328-.2.549-.33a4.314,4.314,0,0,0,.121,3.506c-.268-.448-.534-.9-.805-1.343a8,8,0,0,0-1.213-1.582,6.048,6.048,0,0,1-1.37-2.374,1.449,1.449,0,0,1-.014-.688.55.55,0,0,1,.556-.476,3.288,3.288,0,0,1,1.422.343Z" transform="translate(418.139 -450.347)"/><path class="b" d="M-411.344,460.184a4.3,4.3,0,0,0,.128-3.488c.146.083.257.132.353.2a1.222,1.222,0,0,0,.955.248.74.74,0,0,0,.359-.139,1.572,1.572,0,0,0,.61-.777,2.264,2.264,0,0,1,.279-.591,1.246,1.246,0,0,0,.011-1.242.586.586,0,0,0-.622-.333,3.965,3.965,0,0,1-.644.034,2.757,2.757,0,0,1,1.495-.363.691.691,0,0,1,.531.755,2.89,2.89,0,0,1-.376,1.165,5.611,5.611,0,0,1-1.194,1.747,8.823,8.823,0,0,0-1.331,1.866C-410.966,459.576-411.159,459.878-411.344,460.184Z" transform="translate(427.632 -450.352)"/><path class="b" d="M-405.229,474.15a1.8,1.8,0,0,1,.533-.869,5.041,5.041,0,0,1,.7-.555c.5-.313,1-.619,1.522-.892a1.662,1.662,0,0,1,1.4-.064,3.89,3.89,0,0,0,1.22.285,1.183,1.183,0,0,1,.792.4c.3.3.616.586.928.874a2.449,2.449,0,0,0,.232.17l-.076.086c-.39-.317-.783-.63-1.169-.953a.811.811,0,0,0-.639-.24,1.8,1.8,0,0,1-1-.171,2.06,2.06,0,0,0-2.192.3c-.5.362-1.023.694-1.529,1.05-.209.148-.4.323-.6.485A1.483,1.483,0,0,1-405.229,474.15Z" transform="translate(424.799 -458.327)"/><path class="b" d="M-397.183,476.539c-.441-.35-.885-.7-1.322-1.051a.883.883,0,0,0-.653-.263,2.343,2.343,0,0,1-1.145-.212,1.959,1.959,0,0,0-1.956.277c-.517.346-1.04.682-1.583,1,.161-.145.318-.3.488-.434.463-.369.926-.738,1.4-1.091a1.541,1.541,0,0,1,1.342-.232c.274.065.544.155.82.212a1.53,1.53,0,0,0,.466.024.99.99,0,0,1,.929.272c.236.256.524.46.779.7a1.323,1.323,0,0,1,.436.8Z" transform="translate(424.156 -459.585)"/><path class="b" d="M-390.913,466.535c.126.162.21.281.3.388a.461.461,0,0,0,.313.191.453.453,0,0,0,.35-.1,1.765,1.765,0,0,0,.7-.894c.126-.381.313-.421.637-.2a8.041,8.041,0,0,0,.755.424.231.231,0,0,1-.069.16.216.216,0,0,1-.158.062c-.161.011-.173.111-.222.238a1.427,1.427,0,0,1-.309.505,4.873,4.873,0,0,1-.635.468c-.262.182-.446.13-.572-.17-.054-.13-.129-.208-.264-.175a.622.622,0,0,1-.491-.1.663.663,0,0,1-.267-.438C-390.871,466.8-390.882,466.693-390.913,466.535Zm2.209.161a.306.306,0,0,0-.007-.084c-.024-.067-.054-.131-.082-.2a1.2,1.2,0,0,0-.184.115,1.6,1.6,0,0,0-.107.154c-.121.143-.247.277-.367.422a1.459,1.459,0,0,0-.107.177.594.594,0,0,0,.19.092.691.691,0,0,0,.664-.679Z" transform="translate(418.166 -455.719)"/><path class="b" d="M-407.5,466.613c-.078.192-.142.392-.237.574a.478.478,0,0,1-.544.254.254.254,0,0,0-.207.015.268.268,0,0,0-.131.167.327.327,0,0,1-.56.159c-.215-.151-.429-.305-.644-.458-.18-.128-.248-.263-.352-.712-.166-.044-.368-.059-.4-.251.316-.191.608-.376.907-.547.191-.111.36.008.483.284a3.028,3.028,0,0,0,.318.564,1.7,1.7,0,0,0,.382.352.452.452,0,0,0,.351.1.461.461,0,0,0,.311-.194c.091-.1.172-.218.257-.327Zm-1.516.761.149-.1q-.054-.09-.116-.174c-.118-.145-.239-.286-.358-.429a2.348,2.348,0,0,0-.184-.227c-.073-.067-.15-.072-.186.05a.744.744,0,0,0,.14.616.692.692,0,0,0,.555.268Z" transform="translate(427.273 -455.712)"/><path class="b" d="M-397.55,478.665c-.31-.234-.61-.484-.932-.7a5.227,5.227,0,0,0-1.678-.477,2.9,2.9,0,0,0-.9-.058,2.726,2.726,0,0,0-1.331.59c-.376.251-.73.528-1.1.794a2.292,2.292,0,0,1,.606-.787,10.284,10.284,0,0,1,.927-.71,1.989,1.989,0,0,1,1.742-.245c.417.119.836.232,1.251.358a.975.975,0,0,1,.352.171c.376.325.742.666,1.111,1Z" transform="translate(423.991 -460.701)"/><path class="b" d="M-397.629,468.327c-.231-.206-.418-.383-.616-.546a4,4,0,0,0-1.349-.666c-.157-.051-.317-.092-.476-.137a1.685,1.685,0,0,0-.936-.037,15.522,15.522,0,0,0-1.556.456,7.075,7.075,0,0,0-1.034.616,3.723,3.723,0,0,1,1.766-1.169c.231-.067.458-.148.687-.222a1.621,1.621,0,0,1,.851-.07,5.034,5.034,0,0,1,1.758.566,2.094,2.094,0,0,1,.905,1.209Z" transform="translate(424.043 -456.048)"/><path class="b" d="M-397.611,471.664c-.236-.2-.478-.4-.705-.61a1.629,1.629,0,0,0-1.079-.555,2.678,2.678,0,0,1-.742-.166,2.946,2.946,0,0,0-2.433.25c-.477.264-.949.538-1.437.8a3.613,3.613,0,0,1,.379-.322,16.6,16.6,0,0,1,1.5-.933,3.3,3.3,0,0,1,2.324-.1,1.769,1.769,0,0,0,.366.065,1.571,1.571,0,0,1,1.165.6c.218.244.414.509.615.77a.89.89,0,0,1,.084.181Z" transform="translate(424.233 -457.533)"/><path class="b" d="M-397.665,464.471a2.647,2.647,0,0,0-.364-.218c-.478-.193-.958-.382-1.442-.555a6.57,6.57,0,0,0-.892-.252,1.036,1.036,0,0,0-.558,0c-.631.254-1.259.525-1.865.836a5.153,5.153,0,0,0-.778.61,1.842,1.842,0,0,1,.98-1.179,14.082,14.082,0,0,1,1.81-.614.936.936,0,0,1,.524.037,6.824,6.824,0,0,1,2.036.842c.2.143.385.3.576.444Z" transform="translate(424.028 -454.513)"/><path class="b" d="M-401.37,479.958a2.371,2.371,0,0,1,1.661-.74,4.878,4.878,0,0,1,1.686.247,2.55,2.55,0,0,1,1.077.763.88.88,0,0,1,.226.706A3.721,3.721,0,0,0-401.37,479.958Z" transform="translate(423.011 -461.698)"/><path class="b" d="M-397.388,462.661l-.192-.105a8.018,8.018,0,0,0-2.118-.666.594.594,0,0,0-.342.036c-.42.175-.833.367-1.247.555-.074.033-.141.081-.23.132a.839.839,0,0,1,.478-.666,5.321,5.321,0,0,1,1.038-.4,1.514,1.514,0,0,1,.666.049c.308.068.607.176.912.267A1.656,1.656,0,0,1-397.388,462.661Z" transform="translate(423.079 -453.823)"/><path class="b" d="M-401.393,489.372a2.275,2.275,0,0,1,.811-.811,1.8,1.8,0,0,1,1.07-.444,2.994,2.994,0,0,1,1.761.564.887.887,0,0,1,.357.741,2.429,2.429,0,0,0-1.044-.7,9,9,0,0,0-1.064-.242,1.668,1.668,0,0,0-1.078.353C-400.851,488.984-401.1,489.175-401.393,489.372Z" transform="translate(423.021 -465.661)"/><path class="b" d="M-401.278,484.468a2.674,2.674,0,0,1,1.778-1.188,2.058,2.058,0,0,1,.751.1,2.6,2.6,0,0,1,1.07.354,1,1,0,0,1,.426.781c-.054-.048-.088-.073-.115-.1a1.8,1.8,0,0,0-1.036-.523,5.154,5.154,0,0,1-.763-.249.935.935,0,0,0-.85.042C-400.438,483.938-400.852,484.2-401.278,484.468Z" transform="translate(422.968 -463.506)"/><path class="b" d="M-398.671,480.717a3.5,3.5,0,0,0-3.674,1.057,1.538,1.538,0,0,1,.376-.747,2.331,2.331,0,0,1,2.05-.721,4.347,4.347,0,0,1,.88.206A1.9,1.9,0,0,1-398.671,480.717Z" transform="translate(423.462 -462.172)"/><path class="b" d="M-398.01,457.542a9.672,9.672,0,0,1,0-3.135A9.539,9.539,0,0,1-398.01,457.542Z" transform="translate(421.514 -450.653)"/><path class="b" d="M-403.92,460.5a3.966,3.966,0,0,0-1.522-1.538l.247-.32a2.887,2.887,0,0,1,1.275,1.858Z" transform="translate(424.897 -452.537)"/><path class="b" d="M-393.184,460.506a2.914,2.914,0,0,1,1.264-1.862l.268.326A3.836,3.836,0,0,0-393.184,460.506Z" transform="translate(419.218 -452.54)"/><path class="b" d="M-405.925,465.022a5.634,5.634,0,0,0-.435-.629,4.925,4.925,0,0,0-.548-.468.862.862,0,0,1,.77.282.93.93,0,0,1,.213.815Z" transform="translate(425.576 -454.887)"/><path class="b" d="M-389.53,463.909a2.1,2.1,0,0,0-1.025,1.11A.9.9,0,0,1-389.53,463.909Z" transform="translate(418.015 -454.883)"/></g></svg>