<svg xmlns="http://www.w3.org/2000/svg" xmlns:xlink="http://www.w3.org/1999/xlink" width="52.5" height="52.958" viewBox="0 0 52.5 52.958"><defs><style>.a{fill:#fff;}.a,.b{stroke:#00513b;}.b,.d{fill:rgba(0,0,0,0);}.c{fill:#f5ffe6;}.c,.d,.e{stroke:#80ba27;}.e{fill:none;}.f{filter:url(#c);}.g{filter:url(#a);}</style><filter id="a" x="8.8" y="0" width="29.548" height="24.139" filterUnits="userSpaceOnUse"><feOffset dy="3" input="SourceAlpha"/><feGaussianBlur stdDeviation="2.5" result="b"/><feFlood flood-color="#164500" flood-opacity="0.149"/><feComposite operator="in" in2="b"/><feComposite in="SourceGraphic"/></filter><filter id="c" x="0" y="7.419" width="41.051" height="45.539" filterUnits="userSpaceOnUse"><feOffset dy="3" input="SourceAlpha"/><feGaussianBlur stdDeviation="2.5" result="d"/><feFlood flood-color="#164500" flood-opacity="0.149"/><feComposite operator="in" in2="d"/><feComposite in="SourceGraphic"/></filter></defs><g transform="translate(7.5 3.907)"><g class="g" transform="matrix(1, 0, 0, 1, -7.5, -3.91)"><path class="a" d="M9.427,8.488C10.821,6.382,12.754,2.93,13.319,2.2c.286-.368.344-.544.127-.808S12.738,1.147,12.2,1.3A7.113,7.113,0,0,1,8.551.893C5.746.1,1.7-1.021.071,1.88c-.157.281-.048.25.265.589.551.6,2.243,3.62,3.571,5.689" transform="translate(16.79 4.87)"/></g><g class="f" transform="matrix(1, 0, 0, 1, -7.5, -3.91)"><path class="a" d="M25.166,6.674A26.091,26.091,0,0,0,18.591.967a7.037,7.037,0,0,0-7.092,0C3.076,5.48,0,14.334,0,18.636c0,8.691,6.561,10.857,15.045,10.857a34.573,34.573,0,0,0,5.594-.4" transform="translate(8 12.47)"/></g><path class="b" d="M9.029,0C2.6,3.447,0,10.134,0,13.42" transform="translate(3.807 12.894)"/><path class="c" d="M0,2.643C0,1.29,2.337,0,5.5,0S11,1.29,11,2.643V23.051C11,24.4,8.663,25,5.5,25S0,24.4,0,23.051V2.643Z" transform="translate(21.5 15)"/><path class="d" d="M0,0C0,1.353,2.337,2.276,5.5,2.276S11,1.353,11,0" transform="translate(21.5 21.724)"/><path class="d" d="M0,0C0,1.353,2.337,2.194,5.5,2.194S11,1.353,11,0" transform="translate(21.5 25.806)"/><path class="d" d="M0,0C0,1.353,2.337,2.113,5.5,2.113S11,1.353,11,0" transform="translate(21.5 29.887)"/><path class="d" d="M0,0C0,1.353,2.337,2.031,5.5,2.031S11,1.353,11,0" transform="translate(21.5 33.969)"/><path class="d" d="M0,0C0,1.353,2.337,1.949,5.5,1.949S11,1.353,11,0" transform="translate(21.5 38.051)"/><path class="d" d="M11,2.643C11,1.29,8.663,0,5.5,0S0,1.29,0,2.643,2.337,5,5.5,5,11,4,11,2.643Z" transform="translate(21.5 15)"/><path class="c" d="M12,2.622v8.163C12,12.138,9.163,13,6,13s-6-.862-6-2.214V2.622C0,1.27,2.791,0,5.955,0S12,1.27,12,2.622Z" transform="translate(32.5 24)"/><path class="d" d="M0,0C0,1.353,2.791,2.3,5.955,2.3S12,1.353,12,0" transform="translate(32.5 30.704)"/><path class="d" d="M0,0C0,1.353,2.837,2.214,6,2.214S12,1.353,12,0" transform="translate(32.5 34.786)"/><path class="e" d="M12,2.622C12,1.27,9.118,0,5.955,0S0,1.27,0,2.622,2.791,5.071,5.955,5.071,12,3.975,12,2.622Z" transform="translate(32.5 24)"/></g></svg>