<svg xmlns="http://www.w3.org/2000/svg" xmlns:xlink="http://www.w3.org/1999/xlink" width="75.952" height="56.5" viewBox="0 0 75.952 56.5"><defs><style>.a,.c{fill:#f5ffe6;}.b,.f{fill:#fff;}.b{stroke:#00513b;}.c,.f{stroke:#80ba27;}.d{clip-path:url(#e);}.e{fill:#80ba27;}.f{stroke-linecap:round;stroke-linejoin:round;}.g{stroke:none;}.h{fill:none;}.i{filter:url(#c);}.j{filter:url(#a);}</style><filter id="a" x="0" y="0" width="75.952" height="30.238" filterUnits="userSpaceOnUse"><feOffset dy="3" input="SourceAlpha"/><feGaussianBlur stdDeviation="2.5" result="b"/><feFlood flood-color="#164500" flood-opacity="0.161"/><feComposite operator="in" in2="b"/><feComposite in="SourceGraphic"/></filter><filter id="c" x="15.643" y="2.31" width="44.667" height="54.19" filterUnits="userSpaceOnUse"><feOffset dy="3" input="SourceAlpha"/><feGaussianBlur stdDeviation="3" result="d"/><feFlood flood-color="#80ba27" flood-opacity="0.161"/><feComposite operator="in" in2="d"/><feComposite in="SourceGraphic"/></filter><clipPath id="e"><rect class="a" width="26.667" height="32.381" rx="1"/></clipPath></defs><g transform="translate(-8.5 -277.5)"><g class="j" transform="matrix(1, 0, 0, 1, 8.5, 277.5)"><g class="b" transform="translate(7.5 4.5)"><rect class="g" width="60.952" height="15.238" rx="3"/><rect class="h" x="0.5" y="0.5" width="59.952" height="14.238" rx="2.5"/></g></g><g transform="translate(33.143 285.81)"><g class="i" transform="matrix(1, 0, 0, 1, -24.64, -8.31)"><g class="c" transform="translate(24.64 8.31)"><rect class="g" width="26.667" height="36.19" rx="1"/><rect class="h" x="0.5" y="0.5" width="25.667" height="35.19" rx="0.5"/></g></g><g class="d" transform="translate(0 3.81)"><circle class="e" cx="4.762" cy="4.762" r="4.762" transform="translate(19.048 24.762)"/><circle class="e" cx="4.762" cy="4.762" r="4.762" transform="translate(-1.905 24.762)"/></g><path class="f" d="M10.238.658a2.423,2.423,0,0,0-3.321,0L.541,9.557c-.94.906-.617,1.614.676,1.614l4.37-1.133L6.095,22.5a2.509,2.509,0,0,0,5,0L11.6,10.038l4.341,1.133c1.293,0,1.587-.736.676-1.614Z" transform="translate(21.905 28.571) rotate(180)"/></g></g></svg>