<svg xmlns="http://www.w3.org/2000/svg" width="39.969" height="40" viewBox="0 0 39.969 40"><defs><style>.a{fill:#00513b;}.b{fill:#f5ffe6;}.c{fill:#fff;}.d{fill:#80ba27;}</style></defs><g transform="translate(-0.196 0)"><path class="a" d="M40.165,15.491a9.6,9.6,0,0,0-1.88-5.685.586.586,0,1,0-.941.7,8.377,8.377,0,0,1,1.236,2.4A5.594,5.594,0,0,0,34.555,11.2H31.5a2.532,2.532,0,0,1-2.529-2.53V5.61A5.6,5.6,0,0,0,27.25,1.574a8.322,8.322,0,0,1,3.338,2.047l5.03,5.03a.586.586,0,1,0,.829-.829l-5.03-5.03A9.471,9.471,0,0,0,24.675,0H10.87a3.705,3.705,0,0,0-3.7,3.7V20a10.273,10.273,0,0,0,3.3,20h26a3.705,3.705,0,0,0,3.7-3.7ZM1.368,29.727a9.1,9.1,0,1,1,9.1,9.1A9.111,9.111,0,0,1,1.368,29.727Zm35.1,9.1H15.229A10.273,10.273,0,0,0,8.341,19.676V3.7a2.532,2.532,0,0,1,2.529-2.53H23.358A4.443,4.443,0,0,1,27.8,5.61V8.668a3.705,3.705,0,0,0,3.7,3.7h3.059a4.443,4.443,0,0,1,4.438,4.408V36.3a2.532,2.532,0,0,1-2.529,2.53Z"/><path class="b" d="M1.368,29.727a9.1,9.1,0,1,1,9.1,9.1A9.111,9.111,0,0,1,1.368,29.727Z"/><path class="c" d="M36.464,38.828H15.229A10.273,10.273,0,0,0,8.341,19.676V3.7a2.532,2.532,0,0,1,2.529-2.53H23.358A4.443,4.443,0,0,1,27.8,5.61V8.668a3.705,3.705,0,0,0,3.7,3.7h3.059a4.443,4.443,0,0,1,4.438,4.408V36.3a2.532,2.532,0,0,1-2.529,2.53Z"/><path class="d" d="M178.678,225.5h-21.3a.586.586,0,0,0,0,1.172h21.3a.586.586,0,0,0,0-1.172Z" transform="translate(-144.358 -207.883)"/><path class="d" d="M242.376,265.395H226.47a.586.586,0,0,0,0,1.172h15.906a.586.586,0,0,0,0-1.172Z" transform="translate(-208.056 -244.661)"/><path class="d" d="M270.579,305.29H257.064a.586.586,0,0,0,0,1.172h13.516a.586.586,0,0,0,0-1.172Z" transform="translate(-236.26 -281.439)"/><path class="d" d="M157.374,116.018H165.2a.586.586,0,0,0,0-1.172h-7.826a.586.586,0,0,0,0,1.172Z" transform="translate(-144.358 -105.874)"/><path class="d" d="M51.176,295.95a.4.4,0,0,1,.114-.351l2.08-2.027A1.568,1.568,0,0,0,52.5,290.9l-2.874-.418a.4.4,0,0,1-.3-.217l-1.285-2.6a1.568,1.568,0,0,0-2.812,0l-.7,1.428a.586.586,0,0,0,1.051.518l.7-1.428a.4.4,0,0,1,.711,0l1.285,2.6a1.566,1.566,0,0,0,1.181.858l2.874.418a.4.4,0,0,1,.219.676l-2.08,2.027a1.569,1.569,0,0,0-.45,1.388l.491,2.862a.4.4,0,0,1-.576.418l-2.571-1.352a1.57,1.57,0,0,0-1.459,0l-2.57,1.352a.4.4,0,0,1-.575-.418l.491-2.862a1.567,1.567,0,0,0-.451-1.388l-2.079-2.027a.4.4,0,0,1,.22-.676l2.447-.356a.586.586,0,1,0-.169-1.16l-2.446.356a1.568,1.568,0,0,0-.87,2.675l2.079,2.027a.4.4,0,0,1,.114.351l-.491,2.861a1.566,1.566,0,0,0,2.275,1.654l2.57-1.351a.4.4,0,0,1,.369,0l2.57,1.352a1.569,1.569,0,0,0,2.276-1.654Z" transform="translate(-36.167 -264.38)"/></g></svg>