<svg xmlns="http://www.w3.org/2000/svg" xmlns:xlink="http://www.w3.org/1999/xlink" width="43.072" height="52.072" viewBox="0 0 43.072 52.072"><defs><style>.a{fill:#f5ffe6;stroke:#80ba27;stroke-linejoin:bevel;}.a,.c{stroke-miterlimit:10;}.b{fill:#fff;}.c{fill:none;stroke:#00513b;stroke-linecap:round;stroke-linejoin:round;}.d,.e{stroke:none;}.e{fill:#00513b;}.f{filter:url(#a);}</style><filter id="a" x="0.072" y="2.072" width="43" height="50" filterUnits="userSpaceOnUse"><feOffset dy="3" input="SourceAlpha"/><feGaussianBlur stdDeviation="2.5" result="b"/><feFlood flood-color="#164500" flood-opacity="0.149"/><feComposite operator="in" in2="b"/><feComposite in="SourceGraphic"/></filter></defs><g transform="translate(0.572 0.572)"><path class="a" d="M0,6.136V2.323A2.323,2.323,0,0,0-2.323,0H-25.548a2.323,2.323,0,0,0-2.323,2.323V32.516a2.416,2.416,0,0,0,1.78,2.259" transform="translate(27.528 0) rotate(-9)"/><g class="f" transform="matrix(1, 0, 0, 1, -0.57, -0.57)"><g class="b" transform="translate(7.57 6.57)"><path class="d" d="M 26 34.5 L 2 34.5 C 1.172899961471558 34.5 0.5 33.82709884643555 0.5 33 L 0.5 2 C 0.5 1.172899961471558 1.172899961471558 0.5 2 0.5 L 26 0.5 C 26.82710075378418 0.5 27.5 1.172899961471558 27.5 2 L 27.5 33 C 27.5 33.82709884643555 26.82710075378418 34.5 26 34.5 Z"/><path class="e" d="M 2 1 C 1.448600769042969 1 1 1.448600769042969 1 2 L 1 33 C 1 33.55139923095703 1.448600769042969 34 2 34 L 26 34 C 26.55139923095703 34 27 33.55139923095703 27 33 L 27 2 C 27 1.448600769042969 26.55139923095703 1 26 1 L 2 1 M 2 0 L 26 0 C 27.10457038879395 0 28 0.8954315185546875 28 2 L 28 33 C 28 34.10456848144531 27.10457038879395 35 26 35 L 2 35 C 0.8954296112060547 35 0 34.10456848144531 0 33 L 0 2 C 0 0.8954315185546875 0.8954296112060547 0 2 0 Z"/></g></g><path class="c" d="M0,.5H11" transform="translate(13 13)"/><path class="c" d="M0,.5H15" transform="translate(13 20)"/><path class="c" d="M0,.5H12" transform="translate(13 23)"/><path class="c" d="M-2,.5H4" transform="translate(25 33)"/></g></svg>