<svg xmlns="http://www.w3.org/2000/svg" xmlns:xlink="http://www.w3.org/1999/xlink" width="39" height="54" viewBox="0 0 39 54"><defs><style>.a,.b{fill:#fff;}.a,.d{stroke:#00513b;}.c{fill:#00513b;}.d,.g{fill:none;}.e{fill:#80ba27;}.f{stroke:none;}.h{filter:url(#a);}</style><filter id="a" x="0" y="0" width="39" height="54" filterUnits="userSpaceOnUse"><feOffset dy="3" input="SourceAlpha"/><feGaussianBlur stdDeviation="2.5" result="b"/><feFlood flood-color="#164500" flood-opacity="0.149"/><feComposite operator="in" in2="b"/><feComposite in="SourceGraphic"/></filter></defs><g transform="translate(-9.036 64.5)"><g class="h" transform="matrix(1, 0, 0, 1, 9.04, -64.5)"><g class="a" transform="translate(7.5 4.5)"><rect class="f" width="24" height="39" rx="4"/><rect class="g" x="0.5" y="0.5" width="23" height="38" rx="3.5"/></g></g><rect class="b" width="22" height="26" transform="translate(17.536 -55)"/><rect class="c" width="24" height="1" transform="translate(16.536 -56)"/><rect class="c" width="24" height="1" transform="translate(16.536 -29)"/><g class="d" transform="translate(26.536 -27)"><circle class="f" cx="2" cy="2" r="2"/><circle class="g" cx="2" cy="2" r="1.5"/></g><g transform="translate(0 -4)"><g transform="translate(0 -2)"><rect class="e" width="2" height="2" transform="translate(21.536 -37)"/><rect class="e" width="2" height="2" transform="translate(27.536 -37)"/><rect class="e" width="2" height="2" transform="translate(33.536 -37)"/></g><g transform="translate(0 -3)"><rect class="e" width="2" height="2" transform="translate(33.536 -41)"/><rect class="e" width="2" height="2" transform="translate(27.536 -41)"/><rect class="e" width="2" height="2" transform="translate(21.536 -41)"/></g><g transform="translate(0 -1)"><rect class="e" width="2" height="2" transform="translate(21.536 -33)"/><rect class="e" width="2" height="2" transform="translate(27.536 -33)"/><rect class="e" width="2" height="2" transform="translate(33.536 -33)"/></g></g></g></svg>